<svg width="400" height="409" fill="none" xmlns="http://www.w3.org/2000/svg"><path d="M47.441 201L219 99.379C177.826 39.422 64.597-12.406 38.863 4.109 13.13 20.621 8.841 115.891 47.441 201z" fill="#232E2F" stroke="#232E2F"/><path d="M358.559 212L187 110.379c41.174-59.957 154.403-111.784 180.137-95.27C392.87 31.621 397.159 126.891 358.559 212z" fill="#232E2F" stroke="#232E2F"/><circle cx="200" cy="209" r="175" fill="url(#paint0_radial)" stroke="#232E2F" stroke-width="50"/><path stroke="#7E94D8" stroke-width="5" d="M170.715 75.829l95.446 52.334M173.292 77.48l86.318 111.732M172.506 77.058l4.029 162.445M171.859 78.884L95.51 286.477M95.719 163.904l103.062 166.6M93.208 169.868l171.156-41.941M316.635 258.485l-116.287 71.094M315.888 255.974L89.967 166.061M177.503 244.589l85.445-115.719M92.409 284.028l220.295-23.081M259.94 186.277L198.964 332.78M178.074 248.37l84.627-59.672"/><circle cx="174.388" cy="79.288" r="15.404" transform="rotate(28.737 174.388 79.288)" fill="#D1DDFF"/><circle cx="316.319" cy="254.551" r="15.404" transform="rotate(28.737 316.319 254.551)" fill="#D1DDFF"/><circle cx="257.93" cy="191.039" r="15.404" transform="rotate(28.737 257.93 191.039)" fill="#D1DDFF"/><circle cx="264.44" cy="127.026" r="15.404" transform="rotate(28.737 264.44 127.026)" fill="#D1DDFF"/><circle cx="179.813" cy="242.032" r="15.404" transform="rotate(28.737 179.813 242.032)" fill="#D1DDFF"/><circle cx="96.271" cy="169.34" r="15.404" transform="rotate(28.737 96.27 169.34)" fill="#D1DDFF"/><circle cx="99.526" cy="281.091" r="15.404" transform="rotate(28.737 99.526 281.091)" fill="#D1DDFF"/><circle cx="200.427" cy="327.744" r="15.404" transform="rotate(28.737 200.427 327.744)" fill="#D1DDFF"/><defs><radialGradient id="paint0_radial" cx="0" cy="0" r="1" gradientUnits="userSpaceOnUse" gradientTransform="matrix(0 150 -150 0 200 209)"><stop/><stop offset="1" stop-color="#232E2F"/></radialGradient></defs></svg>